# xmcd
# 
# Track frame offsets:
#     150
#     20701
#     30005
#     47835
#     60873
#     77865
#     94898
#     123461
#     136238
#     148342
#     159322
#     177830
#     211601
#     225488
#     235681
# 
# Disc length: 3323
# 
# Revision: 1
# Processed by: cddbd v1.5.2PL0 Copyright (c) Steve Scherf et al.
# Submitted via: fre:ac v1.0.31
# 
DISCID=b80cf90f
DTITLE=Various Artist - The Finest Bar Jazz CD1
DYEAR=2006
DGENRE=Jazz
TTITLE0=Jamie Cullum - It ain't necessarily so
TTITLE1=Blossom Dearie - Something happens to me
TTITLE2=Stacey Kent - Isn't this a lovely day
TTITLE3=Leroy Hutson - Love the feeling
TTITLE4=Curtis Mayfield - Think (instrumental)
TTITLE5=Billy Preston - Billy's bag
TTITLE6=Toots Thielemans - Dr. Pretty
TTITLE7=Billy May - The look of love
TTITLE8=Roberto Sironi - Gentilhomme italian
TTITLE9=Django Reinhardt - Brazil
TTITLE10=Marina Lima - O chamado
TTITLE11=Miles Davis - Just squeeze me
TTITLE12=Stan Getz - Night and day
TTITLE13=Howard Roberts - Walk tall
TTITLE14=Willie Hobbs - Big legged woman
EXTD=YEAR: 2006
EXTT0=
EXTT1=
EXTT2=
EXTT3=
EXTT4=
EXTT5=
EXTT6=
EXTT7=
EXTT8=
EXTT9=
EXTT10=
EXTT11=
EXTT12=
EXTT13=
EXTT14=
PLAYORDER=
